<?xml version="1.0" encoding="UTF-8"?>
<!DOCTYPE svg PUBLIC "-//W3C//DTD SVG 1.1//EN" "http://www.w3.org/Graphics/SVG/1.1/DTD/svg11.dtd">
<!-- Creator: CorelDRAW X7 -->
<svg xmlns="http://www.w3.org/2000/svg" xml:space="preserve" width="3002px" height="2437px" version="1.1" style="shape-rendering:geometricPrecision; text-rendering:geometricPrecision; image-rendering:optimizeQuality; fill-rule:evenodd; clip-rule:evenodd"
viewBox="0 0 3002 2437"
 xmlns:xlink="http://www.w3.org/1999/xlink">
 <defs>
  <style type="text/css">
   <![CDATA[
    .fil0 {fill:#F16D22}
   ]]>
  </style>
 </defs>
 <g id="Layer_x0020_1">
  <metadata id="CorelCorpID_0Corel-Layer"/>
  <g id="_3018647785328">
   <path class="fil0" d="M2246 2226l-184 7 -129 26c-28,9 -21,0 -63,16 -8,3 -14,4 -21,5 -40,9 -81,28 -117,43 -8,3 -13,4 -20,7l-161 79 -1 -2237c4,-23 129,-67 140,-71l194 -62c36,-10 133,-22 175,-31 14,-3 35,-3 50,-4l258 1c42,3 70,11 110,16l293 82c13,5 6,4 21,10 30,12 154,66 182,88 1,1 2,2 3,2 19,17 24,38 24,70 0,204 6,2086 -3,2117 -5,18 -15,31 -28,39 -27,18 -47,-2 -88,-27l-22 -13c-109,-60 -136,-59 -228,-99 -18,-9 -32,-9 -50,-16 -19,-8 -32,-9 -52,-13 -24,-4 -27,-10 -53,-13 -102,-14 -114,-22 -230,-22zm-21 -623c51,0 110,-2 157,13l301 100c28,15 90,40 60,107 -9,21 -6,15 -16,24 -26,22 -39,13 -76,-9 -1,-1 -2,-1 -3,-2 -1,0 -2,-1 -3,-2 -2,-1 -6,-3 -9,-4l-145 -60 -106 -25c-60,-18 -255,-19 -316,0l-106 24c-16,4 -17,8 -36,13 -55,14 -165,83 -188,76l-28 -23c-19,-28 -16,-83 23,-102l122 -58c10,-5 23,-8 32,-12 15,-8 22,-8 37,-12 13,-4 17,-8 32,-12 114,-26 141,-36 268,-36zm-21 -769c57,0 140,-4 190,13 13,5 22,5 36,7 20,3 20,6 34,10 12,4 25,4 36,7l218 95c43,27 39,87 6,113 -28,23 -46,5 -76,-12l-157 -67c-102,-31 -323,-58 -419,-25l-106 24 -158 64c-10,5 -17,10 -30,16 -16,7 -17,12 -32,11 -12,0 -21,-8 -29,-16 -8,-10 -14,-18 -16,-33 -10,-70 35,-77 72,-98 30,-17 46,-19 74,-33l95 -37c13,-4 25,-4 37,-8l143 -28c28,-1 55,-3 82,-3zm0 385c57,0 140,-4 190,13l235 73c47,20 126,48 121,111l-18 41c0,1 -6,6 -8,7 -28,22 -46,5 -76,-13l-192 -74c-80,-29 -227,-34 -320,-27 -13,1 -27,2 -40,3 -17,2 -20,6 -34,9 -32,8 -76,13 -106,24l-154 65c-10,6 -19,10 -30,15 -21,11 -37,16 -59,-13l-9 -15c-9,-26 -5,-70 24,-87 11,-6 21,-11 30,-16 5,-2 9,-4 15,-7l169 -71c13,-3 25,-4 37,-7 68,-21 155,-31 225,-31zm21 -770c51,0 110,-2 157,13 24,8 47,6 72,15 11,4 23,5 35,8l212 87c2,1 4,2 8,5 12,7 16,7 26,20 13,18 19,38 12,62l-7 17c-9,17 -28,39 -57,26 -4,-2 -24,-13 -29,-16l-15 -9c-30,-13 -84,-41 -112,-48 -25,-7 -75,-27 -102,-31 -113,-18 -178,-26 -292,-17 -62,5 -37,6 -75,13 -12,2 -26,2 -38,5l-248 98c-18,9 -30,17 -52,-6 -26,-26 -35,-88 18,-113l59 -31c38,-14 115,-52 160,-62 114,-26 141,-36 268,-36z"/>
   <path class="fil0" d="M0 2357l0 -2084c0,-63 22,-77 91,-108l132 -60c50,-23 156,-47 191,-60 17,-7 29,-8 49,-11 23,-3 31,-10 53,-13 148,-19 310,-33 459,-5l134 22c20,4 19,8 40,12 27,6 54,13 79,22l190 76c21,8 32,11 32,34l0 2227c-17,-2 -14,-4 -27,-12 -3,-2 -5,-3 -9,-5 -49,-27 -133,-66 -185,-84l-203 -60 -134 -18c-85,-5 -171,-5 -256,1 -32,2 -182,28 -211,40l-143 52c-77,31 -124,54 -198,98 -4,3 -23,13 -24,13 -9,4 -15,4 -25,0l-24 -22c-12,-17 -11,-28 -11,-55zm763 -1523c119,0 181,10 287,37 48,13 143,56 189,79 22,11 40,19 52,40 6,12 10,22 9,41 -1,10 -10,30 -14,36l-12 12c-21,17 -31,13 -47,4l-21 -11c-63,-37 -100,-42 -150,-65 -33,-14 -96,-23 -122,-30 -52,-14 -220,-21 -284,-9l-174 44c-16,5 -49,17 -63,25l-61 29c-11,7 -19,10 -30,16 -21,11 -40,15 -61,-16 -1,-1 -2,-2 -2,-3 -14,-23 -13,-64 7,-86 23,-26 206,-100 234,-106l108 -22c36,-6 16,-9 75,-12 26,-1 53,-3 80,-3zm0 385l110 3c48,3 99,16 144,28 12,3 25,4 37,7 15,4 13,7 32,12l141 59c27,15 50,21 65,50 23,44 -12,118 -68,88l-186 -81c-139,-35 -186,-44 -343,-36l-216 47c-73,24 -89,36 -154,69 -18,9 -34,21 -60,-9 0,0 -3,-4 -4,-6 -7,-9 -2,0 -6,-9 -10,-24 -8,-72 23,-90l186 -83c18,-5 14,-7 32,-12 94,-23 169,-37 267,-37zm0 -770l110 4c32,2 44,9 73,12l108 23c15,4 13,7 32,12 38,9 120,48 156,66 11,6 7,4 14,9l36 34c22,43 -9,89 -35,96 -20,5 -48,-17 -62,-24l-227 -84c-95,-13 -66,-20 -193,-19 -27,0 -54,1 -80,2 -68,4 -217,38 -280,71 -10,5 -20,9 -31,14l-59 31c-19,9 -39,21 -64,-15 -19,-27 -15,-81 17,-99l59 -31c21,-10 41,-17 62,-28l97 -36c93,-24 170,-38 267,-38zm0 1154c56,0 130,-3 181,14l106 24c47,11 144,55 189,78l20 11c39,24 56,63 27,107 -25,38 -55,18 -74,8l-6 -4c-10,-5 1,0 -8,-5l-157 -66c-79,-23 -180,-38 -262,-38l-88 2c-59,3 -42,8 -74,12 -31,5 -48,6 -73,15 -12,5 -24,5 -36,8l-156 67c-37,22 -62,38 -89,2 -1,-1 -2,-2 -2,-3 -17,-24 -14,-66 3,-86l4 -5c23,-24 204,-98 232,-104 12,-3 23,-3 35,-7l148 -27c26,-1 53,-3 80,-3z"/>
  </g>
 </g>
</svg>
